<?xml version="1.0" encoding="utf-8"?>
<!-- Generator: Adobe Illustrator 19.0.0, SVG Export Plug-In . SVG Version: 6.00 Build 0)  -->
<svg version="1.1" id="Layer_1" xmlns="http://www.w3.org/2000/svg" xmlns:xlink="http://www.w3.org/1999/xlink" x="0px" y="0px"
	 width="229.8px" height="63.8px" viewBox="0 0 229.8 63.8" style="enable-background:new 0 0 229.8 63.8;" xml:space="preserve">
<style type="text/css">
	.st0{fill:url(#XMLID_49_);}
	.st1{fill:url(#XMLID_50_);}
	.st2{fill:url(#XMLID_51_);}
	.st3{fill:url(#XMLID_52_);}
	.st4{fill:url(#XMLID_53_);}
	.st5{fill:url(#XMLID_54_);}
	.st6{fill:url(#XMLID_55_);}
	.st7{fill:url(#XMLID_56_);}
	.st8{fill:url(#XMLID_57_);}
	.st9{fill:url(#XMLID_58_);}
	.st10{fill:url(#XMLID_59_);}
	.st11{fill:url(#XMLID_60_);}
	.st12{fill:url(#XMLID_61_);}
	.st13{fill:url(#XMLID_62_);}
	.st14{fill:url(#XMLID_63_);}
	.st15{fill:url(#XMLID_64_);}
	.st16{fill:url(#XMLID_65_);}
	.st17{fill:url(#XMLID_66_);}
	.st18{fill:url(#XMLID_67_);}
	.st19{opacity:0.27;}
	.st20{fill:url(#XMLID_68_);}
	.st21{fill:url(#XMLID_69_);}
	.st22{fill:url(#XMLID_70_);}
</style>
<g id="XMLID_331_">
	<g id="XMLID_133_">
		<linearGradient id="XMLID_49_" gradientUnits="userSpaceOnUse" x1="66.4233" y1="33.7007" x2="226.3335" y2="33.7007">
			<stop  offset="0" style="stop-color:#001BD8"/>
			<stop  offset="0.1427" style="stop-color:#0323DA"/>
			<stop  offset="0.3611" style="stop-color:#0A38E1"/>
			<stop  offset="0.6282" style="stop-color:#165BEC"/>
			<stop  offset="0.9311" style="stop-color:#268BFB"/>
			<stop  offset="1" style="stop-color:#2A97FF"/>
		</linearGradient>
		<path id="XMLID_172_" class="st0" d="M72.7,17.3l-0.3,1.4H84L82.9,25c0,0,0,0,0,0.1c0,0,0,0,0,0.1c-0.2,0.8-0.6,1.4-1.2,1.9
			c-0.6,0.5-1.3,0.8-2,0.8H66.4l0.7-3.8h11.5l0.3-1.4H67.3l1.1-6.2c0,0,0,0,0-0.1c0,0,0,0,0-0.1c0.2-0.8,0.6-1.4,1.2-1.9
			c0.6-0.5,1.3-0.8,2-0.8h13.3l-0.7,3.8H72.7z"/>
		<linearGradient id="XMLID_50_" gradientUnits="userSpaceOnUse" x1="66.4233" y1="33.7007" x2="226.3335" y2="33.7007">
			<stop  offset="0" style="stop-color:#001BD8"/>
			<stop  offset="0.1427" style="stop-color:#0323DA"/>
			<stop  offset="0.3611" style="stop-color:#0A38E1"/>
			<stop  offset="0.6282" style="stop-color:#165BEC"/>
			<stop  offset="0.9311" style="stop-color:#268BFB"/>
			<stop  offset="1" style="stop-color:#2A97FF"/>
		</linearGradient>
		<path id="XMLID_170_" class="st1" d="M92,17.3l-0.2,1.4h9.5l-0.7,3.8h-9.5L90.8,24h11.5l-0.7,3.8H88.4c-0.7,0-1.3-0.3-1.7-0.8
			c-0.4-0.6-0.6-1.2-0.4-2l1.5-8.6c0.1-0.8,0.5-1.5,1.1-2c0.6-0.6,1.3-0.8,2-0.8h13.3l-0.7,3.8H92z"/>
		<linearGradient id="XMLID_51_" gradientUnits="userSpaceOnUse" x1="66.4233" y1="33.7007" x2="226.3335" y2="33.7007">
			<stop  offset="0" style="stop-color:#001BD8"/>
			<stop  offset="0.1427" style="stop-color:#0323DA"/>
			<stop  offset="0.3611" style="stop-color:#0A38E1"/>
			<stop  offset="0.6282" style="stop-color:#165BEC"/>
			<stop  offset="0.9311" style="stop-color:#268BFB"/>
			<stop  offset="1" style="stop-color:#2A97FF"/>
		</linearGradient>
		<path id="XMLID_168_" class="st2" d="M111.3,17.3l-1.2,6.7h11.5l-0.7,3.8h-13.3c-0.7,0-1.3-0.3-1.7-0.8c-0.4-0.6-0.6-1.2-0.4-2
			l1.5-8.6c0.1-0.8,0.5-1.5,1.1-2c0.6-0.6,1.3-0.8,2-0.8h13.3l-0.7,3.8H111.3z"/>
		<linearGradient id="XMLID_52_" gradientUnits="userSpaceOnUse" x1="66.4233" y1="33.7007" x2="226.3335" y2="33.7007">
			<stop  offset="0" style="stop-color:#001BD8"/>
			<stop  offset="0.1427" style="stop-color:#0323DA"/>
			<stop  offset="0.3611" style="stop-color:#0A38E1"/>
			<stop  offset="0.6282" style="stop-color:#165BEC"/>
			<stop  offset="0.9311" style="stop-color:#268BFB"/>
			<stop  offset="1" style="stop-color:#2A97FF"/>
		</linearGradient>
		<path id="XMLID_166_" class="st3" d="M142.8,13.5l-2,11.5c-0.1,0.8-0.5,1.5-1.1,2s-1.3,0.8-2,0.8h-10.7c-0.7,0-1.3-0.3-1.7-0.8
			c-0.4-0.6-0.6-1.2-0.4-2l2-11.5h4.4L129.3,24h7.1l1.9-10.5H142.8z"/>
		<linearGradient id="XMLID_53_" gradientUnits="userSpaceOnUse" x1="66.4233" y1="33.7007" x2="226.3335" y2="33.7007">
			<stop  offset="0" style="stop-color:#001BD8"/>
			<stop  offset="0.1427" style="stop-color:#0323DA"/>
			<stop  offset="0.3611" style="stop-color:#0A38E1"/>
			<stop  offset="0.6282" style="stop-color:#165BEC"/>
			<stop  offset="0.9311" style="stop-color:#268BFB"/>
			<stop  offset="1" style="stop-color:#2A97FF"/>
		</linearGradient>
		<path id="XMLID_163_" class="st4" d="M159.5,13.5c0.7,0,1.3,0.3,1.7,0.8s0.6,1.2,0.4,2l-0.7,3.8c-0.1,0.8-0.5,1.5-1.1,2
			c-0.6,0.6-1.3,0.8-2,0.8h-1.1l2.9,4.8H155l-2.9-4.8h-3.2l-0.9,4.8h-4.4l2.5-14.3H159.5z M156.7,19.2l0.3-1.9h-7.1l-0.3,1.9H156.7z
			"/>
		<linearGradient id="XMLID_54_" gradientUnits="userSpaceOnUse" x1="66.4233" y1="33.7007" x2="226.3335" y2="33.7007">
			<stop  offset="0" style="stop-color:#001BD8"/>
			<stop  offset="0.1427" style="stop-color:#0323DA"/>
			<stop  offset="0.3611" style="stop-color:#0A38E1"/>
			<stop  offset="0.6282" style="stop-color:#165BEC"/>
			<stop  offset="0.9311" style="stop-color:#268BFB"/>
			<stop  offset="1" style="stop-color:#2A97FF"/>
		</linearGradient>
		<path id="XMLID_161_" class="st5" d="M162.4,27.8l2.5-14.3h4.4l-2.5,14.3H162.4z"/>
		<linearGradient id="XMLID_55_" gradientUnits="userSpaceOnUse" x1="66.4233" y1="33.7007" x2="226.3335" y2="33.7007">
			<stop  offset="0" style="stop-color:#001BD8"/>
			<stop  offset="0.1427" style="stop-color:#0323DA"/>
			<stop  offset="0.3611" style="stop-color:#0A38E1"/>
			<stop  offset="0.6282" style="stop-color:#165BEC"/>
			<stop  offset="0.9311" style="stop-color:#268BFB"/>
			<stop  offset="1" style="stop-color:#2A97FF"/>
		</linearGradient>
		<path id="XMLID_159_" class="st6" d="M188.3,13.5l-0.7,3.8h-5.8L180,27.8h-4.5l1.9-10.5h-5.8l0.7-3.8H188.3z"/>
		<linearGradient id="XMLID_56_" gradientUnits="userSpaceOnUse" x1="66.4233" y1="33.7007" x2="226.3335" y2="33.7007">
			<stop  offset="0" style="stop-color:#001BD8"/>
			<stop  offset="0.1427" style="stop-color:#0323DA"/>
			<stop  offset="0.3611" style="stop-color:#0A38E1"/>
			<stop  offset="0.6282" style="stop-color:#165BEC"/>
			<stop  offset="0.9311" style="stop-color:#268BFB"/>
			<stop  offset="1" style="stop-color:#2A97FF"/>
		</linearGradient>
		<path id="XMLID_157_" class="st7" d="M207.4,13.5l-2,11.5c-0.1,0.8-0.5,1.5-1.1,2s-1.3,0.8-2,0.8h-13.3l0.2-1
			c0.1-0.8,0.5-1.5,1.1-2c0.6-0.6,1.3-0.8,2-0.8h8c0.2,0,0.5-0.1,0.7-0.3c0.2-0.2,0.3-0.4,0.4-0.7l0.1-0.5h-8.9
			c-0.7,0-1.3-0.3-1.7-0.8s-0.6-1.2-0.4-2l1.1-6.2h4.4l-0.9,5.3h6.2c0.2,0,0.5-0.1,0.7-0.3c0.2-0.2,0.3-0.4,0.4-0.7l0.8-4.3H207.4z"
			/>
		<linearGradient id="XMLID_57_" gradientUnits="userSpaceOnUse" x1="66.4233" y1="33.7007" x2="226.3335" y2="33.7007">
			<stop  offset="0" style="stop-color:#001BD8"/>
			<stop  offset="0.1427" style="stop-color:#0323DA"/>
			<stop  offset="0.3611" style="stop-color:#0A38E1"/>
			<stop  offset="0.6282" style="stop-color:#165BEC"/>
			<stop  offset="0.9311" style="stop-color:#268BFB"/>
			<stop  offset="1" style="stop-color:#2A97FF"/>
		</linearGradient>
		<path id="XMLID_152_" class="st8" d="M85.1,39.6l-0.7,3.8h-5.8l-1.8,10.5h-4.5l1.9-10.5h-5.8l0.7-3.8H85.1z"/>
		<linearGradient id="XMLID_58_" gradientUnits="userSpaceOnUse" x1="66.4233" y1="33.7007" x2="226.3335" y2="33.7007">
			<stop  offset="0" style="stop-color:#001BD8"/>
			<stop  offset="0.1427" style="stop-color:#0323DA"/>
			<stop  offset="0.3611" style="stop-color:#0A38E1"/>
			<stop  offset="0.6282" style="stop-color:#165BEC"/>
			<stop  offset="0.9311" style="stop-color:#268BFB"/>
			<stop  offset="1" style="stop-color:#2A97FF"/>
		</linearGradient>
		<path id="XMLID_149_" class="st9" d="M101.6,39.6c0.7,0,1.3,0.3,1.7,0.8s0.6,1.2,0.4,2l-1.5,8.6c-0.1,0.8-0.5,1.5-1.1,2
			s-1.3,0.8-2,0.8H88.4c-0.7,0-1.3-0.3-1.7-0.8c-0.4-0.6-0.6-1.2-0.4-2l1.5-8.6c0.1-0.8,0.5-1.5,1.1-2c0.6-0.6,1.3-0.8,2-0.8H101.6z
			 M97.9,50.1l1.2-6.7H92l-1.2,6.7H97.9z"/>
		<linearGradient id="XMLID_59_" gradientUnits="userSpaceOnUse" x1="66.4233" y1="33.7007" x2="226.3335" y2="33.7007">
			<stop  offset="0" style="stop-color:#001BD8"/>
			<stop  offset="0.1427" style="stop-color:#0323DA"/>
			<stop  offset="0.3611" style="stop-color:#0A38E1"/>
			<stop  offset="0.6282" style="stop-color:#165BEC"/>
			<stop  offset="0.9311" style="stop-color:#268BFB"/>
			<stop  offset="1" style="stop-color:#2A97FF"/>
		</linearGradient>
		<path id="XMLID_147_" class="st10" d="M117.1,46.7l4,7.2h-5.7l-2.9-5.3h-2.1l-0.9,5.3H105l2.5-14.3h4.4l-0.9,5.3h2.1l4.7-5.3h5.7
			L117.1,46.7z"/>
		<linearGradient id="XMLID_60_" gradientUnits="userSpaceOnUse" x1="66.4233" y1="33.7007" x2="226.3335" y2="33.7007">
			<stop  offset="0" style="stop-color:#001BD8"/>
			<stop  offset="0.1427" style="stop-color:#0323DA"/>
			<stop  offset="0.3611" style="stop-color:#0A38E1"/>
			<stop  offset="0.6282" style="stop-color:#165BEC"/>
			<stop  offset="0.9311" style="stop-color:#268BFB"/>
			<stop  offset="1" style="stop-color:#2A97FF"/>
		</linearGradient>
		<path id="XMLID_145_" class="st11" d="M130.6,43.4l-0.2,1.4h9.5l-0.7,3.8h-9.5l-0.3,1.4H141l-0.7,3.8H127c-0.7,0-1.3-0.3-1.7-0.8
			s-0.6-1.2-0.4-2l1.5-8.6c0.1-0.8,0.5-1.5,1.1-2s1.3-0.8,2-0.8h13.3l-0.7,3.8H130.6z"/>
		<linearGradient id="XMLID_61_" gradientUnits="userSpaceOnUse" x1="66.4233" y1="33.7007" x2="226.3335" y2="33.7007">
			<stop  offset="0" style="stop-color:#001BD8"/>
			<stop  offset="0.1427" style="stop-color:#0323DA"/>
			<stop  offset="0.3611" style="stop-color:#0A38E1"/>
			<stop  offset="0.6282" style="stop-color:#165BEC"/>
			<stop  offset="0.9311" style="stop-color:#268BFB"/>
			<stop  offset="1" style="stop-color:#2A97FF"/>
		</linearGradient>
		<path id="XMLID_143_" class="st12" d="M162.2,39.6l-2,11.5c-0.1,0.8-0.5,1.5-1.1,2s-1.3,0.8-2,0.8h-2.3l-5.1-8.9l-1.6,8.9h-4.4
			l2-11.5c0.1-0.8,0.5-1.5,1.1-2c0.6-0.6,1.3-0.8,2-0.8h2.3l5.1,8.9l1.6-8.9H162.2z"/>
		<linearGradient id="XMLID_62_" gradientUnits="userSpaceOnUse" x1="66.4233" y1="33.7007" x2="226.3335" y2="33.7007">
			<stop  offset="0" style="stop-color:#001BD8"/>
			<stop  offset="0.1427" style="stop-color:#0323DA"/>
			<stop  offset="0.3611" style="stop-color:#0A38E1"/>
			<stop  offset="0.6282" style="stop-color:#165BEC"/>
			<stop  offset="0.9311" style="stop-color:#268BFB"/>
			<stop  offset="1" style="stop-color:#2A97FF"/>
		</linearGradient>
		<path id="XMLID_141_" class="st13" d="M162.4,53.9l2.5-14.3h4.4l-2.5,14.3H162.4z"/>
		<linearGradient id="XMLID_63_" gradientUnits="userSpaceOnUse" x1="66.4233" y1="33.7007" x2="226.3335" y2="33.7007">
			<stop  offset="0" style="stop-color:#001BD8"/>
			<stop  offset="0.1427" style="stop-color:#0323DA"/>
			<stop  offset="0.3611" style="stop-color:#0A38E1"/>
			<stop  offset="0.6282" style="stop-color:#165BEC"/>
			<stop  offset="0.9311" style="stop-color:#268BFB"/>
			<stop  offset="1" style="stop-color:#2A97FF"/>
		</linearGradient>
		<path id="XMLID_139_" class="st14" d="M187.5,42.4l-0.3,1.9l-9.8,5.8h8.8l-0.7,3.8h-13.3c-0.7,0-1.3-0.3-1.7-0.8s-0.6-1.2-0.4-2
			l0.3-1.8l9.8-5.8h-8.8l0.7-3.8h13.3c0.7,0,1.3,0.3,1.7,0.8C187.5,41,187.7,41.6,187.5,42.4z"/>
		<linearGradient id="XMLID_64_" gradientUnits="userSpaceOnUse" x1="66.4233" y1="33.7007" x2="226.3335" y2="33.7007">
			<stop  offset="0" style="stop-color:#001BD8"/>
			<stop  offset="0.1427" style="stop-color:#0323DA"/>
			<stop  offset="0.3611" style="stop-color:#0A38E1"/>
			<stop  offset="0.6282" style="stop-color:#165BEC"/>
			<stop  offset="0.9311" style="stop-color:#268BFB"/>
			<stop  offset="1" style="stop-color:#2A97FF"/>
		</linearGradient>
		<path id="XMLID_137_" class="st15" d="M195.3,43.4l-0.2,1.4h9.5l-0.7,3.8h-9.5l-0.3,1.4h11.5l-0.7,3.8h-13.3
			c-0.7,0-1.3-0.3-1.7-0.8s-0.6-1.2-0.4-2l1.5-8.6c0.1-0.8,0.5-1.5,1.1-2s1.3-0.8,2-0.8h13.3l-0.7,3.8H195.3z"/>
		<linearGradient id="XMLID_65_" gradientUnits="userSpaceOnUse" x1="66.4233" y1="33.7007" x2="226.3335" y2="33.7007">
			<stop  offset="0" style="stop-color:#001BD8"/>
			<stop  offset="0.1427" style="stop-color:#0323DA"/>
			<stop  offset="0.3611" style="stop-color:#0A38E1"/>
			<stop  offset="0.6282" style="stop-color:#165BEC"/>
			<stop  offset="0.9311" style="stop-color:#268BFB"/>
			<stop  offset="1" style="stop-color:#2A97FF"/>
		</linearGradient>
		<path id="XMLID_134_" class="st16" d="M224.1,39.6c0.7,0,1.3,0.3,1.7,0.8s0.6,1.2,0.4,2l-0.7,3.8c-0.1,0.8-0.5,1.5-1.1,2
			c-0.6,0.6-1.3,0.8-2,0.8h-1.1l2.9,4.8h-4.6l-2.9-4.8h-3.2l-0.9,4.8h-4.4l2.5-14.3H224.1z M221.3,45.3l0.3-1.9h-7.1l-0.3,1.9H221.3
			z"/>
	</g>
</g>
<linearGradient id="XMLID_66_" gradientUnits="userSpaceOnUse" x1="5.3496" y1="36.8234" x2="60.0822" y2="36.8234">
	<stop  offset="0.3138" style="stop-color:#2140DB"/>
	<stop  offset="0.4305" style="stop-color:#203DD3"/>
	<stop  offset="0.6128" style="stop-color:#1E34BD"/>
	<stop  offset="0.8365" style="stop-color:#1B2699"/>
	<stop  offset="1" style="stop-color:#181A7A"/>
</linearGradient>
<path id="XMLID_156_" class="st17" d="M56.4,18.3l3.2,5.6c2.6,4.6-5.9,14.5-19.5,22.5c-14,8.2-28,11.3-31.3,6.8
	c-0.1-0.1-0.2-0.2-0.2-0.4l-3.2-5.6c0.1,0.1,0.2,0.3,0.2,0.4C8.9,52.1,23,49,36.9,40.8C50.5,32.8,59,22.9,56.4,18.3z"/>
<g id="XMLID_154_">
	<linearGradient id="XMLID_67_" gradientUnits="userSpaceOnUse" x1="30.3818" y1="46.8585" x2="29.2513" y2="14.4847">
		<stop  offset="0" style="stop-color:#263EEB"/>
		<stop  offset="0.292" style="stop-color:#2647F8;stop-opacity:0.8362"/>
		<stop  offset="0.41" style="stop-color:#264BFF;stop-opacity:0.77"/>
		<stop  offset="0.5187" style="stop-color:#2651FF;stop-opacity:0.6282"/>
		<stop  offset="0.6691" style="stop-color:#2763FF;stop-opacity:0.4319"/>
		<stop  offset="0.843" style="stop-color:#2880FF;stop-opacity:0.2049"/>
		<stop  offset="1" style="stop-color:#2AA1FF;stop-opacity:0"/>
	</linearGradient>
	<path id="XMLID_155_" class="st18" d="M55.1,15.8c3.3,4.4-5.3,14.7-19.2,22.9c-14,8.2-28,11.3-31.3,6.8
		c-3.3-4.4,5.3-14.7,19.2-22.9C37.7,14.5,51.8,11.4,55.1,15.8z"/>
</g>
<g id="XMLID_5_" class="st19">
	<linearGradient id="XMLID_68_" gradientUnits="userSpaceOnUse" x1="28.2985" y1="41.8585" x2="27.168" y2="9.4847">
		<stop  offset="0" style="stop-color:#263EEB"/>
		<stop  offset="0.292" style="stop-color:#2647F8;stop-opacity:0.8362"/>
		<stop  offset="0.41" style="stop-color:#264BFF;stop-opacity:0.77"/>
		<stop  offset="0.5187" style="stop-color:#2651FF;stop-opacity:0.6282"/>
		<stop  offset="0.6691" style="stop-color:#2763FF;stop-opacity:0.4319"/>
		<stop  offset="0.843" style="stop-color:#2880FF;stop-opacity:0.2049"/>
		<stop  offset="1" style="stop-color:#2AA1FF;stop-opacity:0"/>
	</linearGradient>
	<path id="XMLID_6_" class="st20" d="M53,10.8c3.3,4.4-5.3,14.7-19.2,22.9c-14,8.2-28,11.3-31.3,6.8c-3.3-4.4,5.3-14.7,19.2-22.9
		C35.7,9.5,49.7,6.4,53,10.8z"/>
</g>
<linearGradient id="XMLID_69_" gradientUnits="userSpaceOnUse" x1="-2196.7947" y1="-37.2607" x2="-2155.2498" y2="-37.2607" gradientTransform="matrix(-0.3368 -0.1164 0.3267 -0.9451 -686.4227 -256.9948)">
	<stop  offset="0" style="stop-color:#263EEB"/>
	<stop  offset="0.2234" style="stop-color:#2647F8;stop-opacity:0.8362"/>
	<stop  offset="0.3138" style="stop-color:#264BFF;stop-opacity:0.77"/>
	<stop  offset="0.5057" style="stop-color:#286EFF;stop-opacity:0.5547"/>
	<stop  offset="0.7016" style="stop-color:#298AFF;stop-opacity:0.3349"/>
	<stop  offset="0.873" style="stop-color:#2A9BFF;stop-opacity:0.1425"/>
	<stop  offset="1" style="stop-color:#2AA1FF;stop-opacity:0"/>
</linearGradient>
<path id="XMLID_43_" class="st21" d="M24.3,62.7c-0.3,0-0.5,0-0.7-0.1c-5.1-1.8-0.6-20.9,3.7-33.4l0,0c2.8-8.1,6.1-15.5,9.2-20.8
	c3.5-6,6.3-8.5,8.5-7.8c5.1,1.8,0.6,20.9-3.7,33.4C37.2,45.9,29.5,62.7,24.3,62.7z M29.2,29.8c-6.6,19.1-6.7,30.2-4.9,30.9
	c1.8,0.6,8.6-8.2,15.2-27.3C46,14.2,46.1,3.1,44.3,2.5c-0.5-0.2-2.5,0.7-6.1,6.9C35.1,14.6,31.9,21.9,29.2,29.8L29.2,29.8z"/>
<linearGradient id="XMLID_70_" gradientUnits="userSpaceOnUse" x1="-2130.4165" y1="77.8107" x2="-2088.873" y2="77.8107" gradientTransform="matrix(-0.3065 -0.1818 0.5103 -0.86 -651.9593 -285.1299)">
	<stop  offset="0" style="stop-color:#263EEB"/>
	<stop  offset="0.2234" style="stop-color:#2647F8;stop-opacity:0.8362"/>
	<stop  offset="0.3138" style="stop-color:#264BFF;stop-opacity:0.77"/>
	<stop  offset="0.5057" style="stop-color:#286EFF;stop-opacity:0.5547"/>
	<stop  offset="0.7016" style="stop-color:#298AFF;stop-opacity:0.3349"/>
	<stop  offset="0.873" style="stop-color:#2A9BFF;stop-opacity:0.1425"/>
	<stop  offset="1" style="stop-color:#2AA1FF;stop-opacity:0"/>
</linearGradient>
<path id="XMLID_46_" class="st22" d="M18.8,60.1c-0.4,0-0.9-0.1-1.2-0.3c-4.7-2.8,3.6-20.6,10.4-32l0,0C34.6,16.5,46.3,0.6,51,3.4
	c2,1.2,1.9,5-0.4,11.5c-2,5.8-5.6,13.1-9.9,20.5C34.4,45.8,24,60.1,18.8,60.1z M29.6,28.8C19.3,46.2,17,57.1,18.6,58
	c1.6,1,10-6.3,20.4-23.7c4.3-7.2,7.8-14.4,9.8-20.1C51,7.5,50.4,5.4,50,5.1C48.4,4.1,39.9,11.4,29.6,28.8L29.6,28.8z"/>
</svg>
