<?xml version="1.0" encoding="utf-8"?>
<!-- Generator: Adobe Illustrator 19.0.0, SVG Export Plug-In . SVG Version: 6.00 Build 0)  -->
<svg version="1.1" id="Layer_1" xmlns="http://www.w3.org/2000/svg" xmlns:xlink="http://www.w3.org/1999/xlink" x="0px" y="0px"
	 width="2287px" height="189.8px" viewBox="0 0 2287 189.8" style="enable-background:new 0 0 2287 189.8;" xml:space="preserve">
<style type="text/css">
	.st0{fill:#55DBFF;}
	.st1{fill:#DE3237;}
	.st2{fill:#B12E31;}
	.st3{fill:#FFFFFF;}
	.st4{fill:#F7503B;}
	.st5{fill:#858FBA;}
	.st6{fill:#232531;}
	.st7{fill:#EA4323;}
	.st8{fill:#80C929;}
	.st9{fill:#404137;}
	.st10{fill:#1A94FF;}
	.st11{fill:#8A714E;}
	.st12{fill:#442D22;}
	.st13{fill:#A29F81;}
	.st14{fill:#49994A;}
	.st15{fill:#58A650;}
	.st16{fill:#5D839D;}
	.st17{fill:#F4941D;}
	.st18{stroke:#000000;stroke-width:4.5196;}
	.st19{fill:#33678D;}
	.st20{fill:none;stroke:#FFFFFF;stroke-width:1.5065;stroke-linecap:round;stroke-linejoin:round;}
	.st21{fill:none;stroke:#FFFFFF;stroke-width:1.5065;stroke-linecap:round;stroke-linejoin:bevel;}
	.st22{fill:#FFFFFF;stroke:#FFFFFF;stroke-width:0.5022;}
	.st23{fill:#FFFFFF;stroke:#FFFFFF;stroke-width:0.2511;}
	.st24{fill:none;stroke:#FFFFFF;stroke-width:0.3626;stroke-linecap:round;stroke-linejoin:round;}
	.st25{fill:#E02528;}
	.st26{fill:#2491E8;}
	.st27{fill:#FAFAFA;}
	.st28{fill:#46A2EB;}
	.st29{fill:#57AAEC;}
	.st30{fill:#4CA5EB;}
	.st31{fill:#2492E8;}
	.st32{fill:#252F3E;}
	.st33{fill:#FF9500;}
</style>
<g id="XMLID_676_">
	<path id="XMLID_952_" class="st0" d="M94.2,76c-0.7-0.3-1.5-0.5-2.3-0.7c0.1-0.5,0.2-1,0.3-1.5c1.7-8.3,0.6-15-3.2-17.1
		c-3.7-2.1-9.6,0.1-15.7,5.3c-0.6,0.5-1.2,1.1-1.7,1.6c-0.4-0.4-0.8-0.7-1.2-1.1c-6.3-5.6-12.7-8-16.5-5.8
		c-3.6,2.1-4.7,8.4-3.2,16.2c0.2,0.8,0.3,1.6,0.5,2.3c-0.9,0.3-1.8,0.5-2.6,0.8c-7.4,2.6-12.1,6.6-12.1,10.8
		c0,4.3,5.1,8.7,12.8,11.3c0.6,0.2,1.3,0.4,1.9,0.6c-0.2,0.8-0.4,1.7-0.5,2.5c-1.5,7.7-0.3,13.8,3.3,15.9c3.8,2.2,10.1-0.1,16.2-5.4
		c0.5-0.4,1-0.9,1.5-1.3c0.6,0.6,1.2,1.2,1.9,1.7c5.9,5.1,11.8,7.2,15.5,5.1c3.8-2.2,5-8.8,3.4-16.8c-0.1-0.6-0.3-1.2-0.4-1.9
		c0.4-0.1,0.9-0.3,1.3-0.4c8-2.7,13.2-7,13.2-11.4C106.6,82.6,101.7,78.6,94.2,76z M75.3,64.2c5.2-4.5,10-6.3,12.2-5
		c2.3,1.4,3.3,6.8,1.8,14c-0.1,0.5-0.2,0.9-0.3,1.4c-2.9-0.7-6.1-1.2-9.4-1.5c-1.9-2.7-3.9-5.2-5.9-7.4
		C74.3,65.1,74.8,64.6,75.3,64.2z M57.3,90.4c0.6,1.2,1.3,2.4,2,3.6c0.7,1.2,1.4,2.4,2.2,3.6c-2.3-0.3-4.5-0.6-6.5-1
		C55.6,94.6,56.4,92.6,57.3,90.4z M57.3,83.4c-0.9-2.1-1.6-4.1-2.2-6.1c2-0.4,4.1-0.8,6.3-1.1c-0.7,1.2-1.5,2.3-2.1,3.5
		C58.6,81,57.9,82.2,57.3,83.4z M58.9,86.9c0.9-1.9,1.9-3.8,3-5.6v0c1.1-1.8,2.2-3.6,3.4-5.4c2.1-0.2,4.2-0.2,6.4-0.2
		c2.2,0,4.3,0.1,6.4,0.2c1.2,1.8,2.3,3.6,3.4,5.4c1.1,1.8,2.1,3.7,3,5.6c-0.9,1.9-1.9,3.8-3,5.7h0c-1.1,1.8-2.2,3.6-3.4,5.4
		c-2.1,0.1-4.2,0.2-6.4,0.2c-2.2,0-4.3-0.1-6.3-0.2c-1.2-1.8-2.4-3.6-3.4-5.4C60.8,90.7,59.8,88.8,58.9,86.9z M84,94
		c0.7-1.2,1.4-2.5,2-3.7c0.9,2.1,1.7,4.2,2.4,6.2c-2,0.5-4.2,0.8-6.5,1.1C82.6,96.4,83.3,95.2,84,94z M86,83.4
		c-0.6-1.2-1.3-2.4-2-3.6c-0.7-1.2-1.4-2.3-2.1-3.5c2.2,0.3,4.4,0.7,6.4,1.1C87.6,79.3,86.9,81.3,86,83.4z M71.6,67.8
		c1.4,1.5,2.8,3.2,4.1,5c-2.8-0.1-5.5-0.1-8.3,0C68.8,71,70.2,69.3,71.6,67.8z M55.5,59.2c2.3-1.4,7.5,0.6,13,5.4
		c0.3,0.3,0.7,0.6,1,1c-2,2.2-4,4.7-6,7.4c-3.3,0.3-6.4,0.8-9.3,1.5c-0.2-0.7-0.3-1.4-0.5-2.2v0C52.4,65.6,53.3,60.5,55.5,59.2z
		 M52.1,95.9c-0.6-0.2-1.2-0.3-1.7-0.5c-3.4-1.2-6.2-2.7-8.2-4.3c-1.7-1.5-2.6-3-2.6-4.2c0-2.5,3.8-5.8,10.1-8
		c0.8-0.3,1.6-0.5,2.4-0.8c0.9,2.8,2,5.8,3.4,8.8C54.2,90,53,93,52.1,95.9z M68.3,109.5c-2.7,2.4-5.4,4.1-7.8,4.9h0
		c-2.2,0.8-3.9,0.8-4.9,0.2c-2.2-1.3-3.1-6.2-1.9-12.8c0.1-0.8,0.3-1.6,0.5-2.3c2.9,0.6,6,1.1,9.4,1.4c1.9,2.7,4,5.2,6,7.4
		C69.2,108.7,68.8,109.1,68.3,109.5z M71.7,106.1c-1.4-1.5-2.8-3.2-4.2-5c1.3,0.1,2.7,0.1,4.1,0.1c1.4,0,2.8,0,4.2-0.1
		C74.5,102.9,73.1,104.6,71.7,106.1z M89.9,110.3c-0.4,2.2-1.3,3.7-2.3,4.3c-2.2,1.3-6.9-0.4-12-4.8c-0.6-0.5-1.2-1-1.8-1.6
		c2-2.2,3.9-4.7,5.9-7.5c3.4-0.3,6.6-0.8,9.5-1.5c0.1,0.6,0.3,1.1,0.4,1.7C90.2,104.6,90.3,107.8,89.9,110.3z M92.4,95.4
		c-0.4,0.1-0.8,0.2-1.2,0.4c-0.9-2.8-2.1-5.8-3.5-8.9c1.4-3,2.5-6,3.4-8.7c0.7,0.2,1.4,0.4,2.1,0.7c6.5,2.2,10.4,5.5,10.4,8.1
		C103.6,89.6,99.3,93.1,92.4,95.4z"/>
	<path id="XMLID_948_" class="st0" d="M71.6,80.6c3.5,0,6.3,2.8,6.3,6.3c0,3.5-2.8,6.3-6.3,6.3c-3.5,0-6.3-2.8-6.3-6.3
		C65.4,83.4,68.2,80.6,71.6,80.6"/>
</g>
<g id="XMLID_1141_">
	<path id="XMLID_1938_" class="st1" d="M213.5,65.6l29.6-10.5l30.4,10.4l-4.9,39.2l-25.5,14.1L218,104.8L213.5,65.6z"/>
	<path id="XMLID_1937_" class="st2" d="M273.5,65.5l-30.4-10.4v63.6l25.5-14.1L273.5,65.5L273.5,65.5z"/>
	<path id="XMLID_1527_" class="st3" d="M243.2,66.3l-18.4,41l6.9-0.1l3.7-9.3h16.5l4.1,9.4l6.6,0.1L243.2,66.3L243.2,66.3z
		 M243.2,79.5l6.2,13h-11.7L243.2,79.5L243.2,79.5z"/>
</g>
<g id="XMLID_1954_">
	<path id="XMLID_1955_" class="st4" d="M451.6,85.3c-0.5-0.5-7.2-8.9-8.3-10.3c-1.2-1.4-1.7-1.1-2.5-1c-0.8,0.1-9.2,1.6-10.2,1.6
		c-1,0.2-1.6,0.5-1,1.4c0.5,0.8,6.1,8.6,7.3,10.4l-22.1,5.3l-17.5-29.4c-0.7-1-0.9-1.4-2.4-1.3c-1.6,0.1-13.8,1.1-14.7,1.1
		c-0.9,0.1-1.8,0.4-1,2.5c0.9,2.1,14.8,31.9,15.1,32.8c0.3,0.9,1.4,2.3,3.7,1.7c2.4-0.6,10.8-2.8,15.4-4c2.4,4.3,7.3,13.2,8.2,14.5
		c1.2,1.7,2.1,1.4,3.9,0.9c1.5-0.4,22.7-8.1,23.7-8.5c1-0.4,1.6-0.7,0.9-1.7c-0.5-0.7-6.1-8.2-9-12.2c2-0.5,9.2-2.4,10-2.7
		C452,86.2,452.2,85.8,451.6,85.3L451.6,85.3z M411.4,93.5c-0.3,0.1-12.7,3-13.3,3.2c-0.7,0.2-0.7,0.1-0.7-0.2
		c-0.2-0.3-14.8-30.5-15-30.8c-0.2-0.3-0.2-0.7,0-0.7c0.2,0,11.7-1,12.1-1c0.4,0,0.3,0.1,0.5,0.3c0,0,16.2,28,16.5,28.5
		C411.9,93.3,411.7,93.4,411.4,93.5L411.4,93.5z M446.3,100c0.2,0.3,0.4,0.5-0.3,0.7c-0.6,0.3-20.9,7.1-21.4,7.3
		c-0.4,0.2-0.7,0.3-1.2-0.5c-0.5-0.8-7.1-12.2-7.1-12.2l21.6-5.6c0.5-0.2,0.7-0.3,1,0.3C439.4,90.6,446.2,99.8,446.3,100L446.3,100z
		 M447.7,84.8c-0.5,0.1-8.4,2.1-8.4,2.1l-6.5-8.9c-0.2-0.3-0.3-0.5,0.1-0.6c0.4-0.1,7.8-1.4,8.2-1.5c0.3-0.1,0.6-0.2,1,0.4
		c0.4,0.5,6,7.6,6.3,7.9C448.6,84.5,448.2,84.7,447.7,84.8L447.7,84.8z"/>
</g>
<g id="XMLID_1942_">
	<ellipse id="XMLID_1963_" class="st5" cx="587.3" cy="86.9" rx="48" ry="25"/>
	<path id="XMLID_1948_" class="st6" d="M570.2,75.1H558l-5.3,26.6h6.2l1.3-6.9h5.9c5.6,0.3,11.8-4.3,11.8-12.2
		C578.1,78,575.5,75.4,570.2,75.1z M565.6,89.9h-3.9l0,0l1.6-9.9h4.3c2.3,0,3.9,1,3.9,3C571.2,88.6,568.6,89.5,565.6,89.9z"/>
	<path id="XMLID_1947_" class="st6" d="M576.9,94.8l5.3-26.6h6.3l-1.3,6.9h5.9c5.3,0.3,7.2,3,6.6,6.3l-2.3,13.5h-6.6l2.3-12.2
		c0.3-1.6,0.3-2.6-2-2.6h-4.9l-3,14.8H576.9z"/>
	<path id="XMLID_1944_" class="st6" d="M614.3,75.1h-12.2l-5.3,26.6h6.2l1.3-6.9h5.9c5.6,0.3,11.8-4.3,11.8-12.2
		C622.2,78,619.6,75.4,614.3,75.1z M609.7,89.9h-3.9l0,0l1.6-9.9h4.3c2.3,0,3.9,1,3.9,3C615.3,88.6,612.6,89.5,609.7,89.9z"/>
</g>
<path id="XMLID_1962_" class="st7" d="M748.9,121.5c-4.2-1.8-8-6.4-8-11c0-5.1,3.2-9.4,7.2-12.2c-0.5,1.8-0.7,3.5,0.4,5.1
	c1.1,1.5,3.1,2.2,4.9,1.8c4.3-0.9,4.5-5.7,1.9-8.4c-2.5-2.7-4.9-5.8-4-9.7c0.5-2,1.7-3.8,3.2-5.2c-1.2,3.1,2.2,6.2,4.4,7.7
	c3.8,2.6,8.1,4.7,11.6,7.8c3.7,3.3,6.5,7.7,5.9,12.8c-0.6,5.5-5,9.4-10,11.4c10.4-2.3,21.2-10.4,21.5-22c0.2-9.5-6.4-16.9-14.5-21.1
	l-0.4-0.2c0.2,0.5,0.3,1,0.3,1.4c0.1-0.3,0.1-0.6,0.1-0.9c0,0.4-0.1,0.8-0.1,1.1l0-0.2c-0.1,0.5-0.3,1-0.6,1.4l0.1-0.1
	c-1.6,2.7-6,3.3-8.2,0.5c-3.5-4.5,0.1-9.3,0.6-14c0.6-5.9-3.1-11.7-7.7-15.1c2.5,4.1-0.8,9.5-3.5,12.6c-2.6,2.9-5.7,5.4-8.6,8.1
	c-3.1,2.9-6,5.9-8.6,9.3c-5.1,6.7-8.1,15.2-5.9,23.6C733.4,114.3,740.7,119.6,748.9,121.5L748.9,121.5z"/>
<g id="XMLID_1941_">
	<g id="XMLID_1972_">
		<path id="XMLID_1976_" class="st8" d="M931.1,93.2c-0.4,0-0.7,0.1-1,0.3l-9.8,5.7c-0.6,0.4-1,1.1-1,1.8v11.3c0,0.7,0.4,1.4,1,1.8
			l2.6,1.5c1.2,0.6,1.7,0.6,2.3,0.6c1.8,0,2.9-1.1,2.9-3.1v-11.2c0-0.2-0.1-0.3-0.3-0.3h-1.2c-0.2,0-0.3,0.1-0.3,0.3v11.2
			c0,0.9-0.9,1.7-2.4,1l-2.7-1.6c-0.1,0-0.2-0.1-0.2-0.2V101c0-0.1,0.1-0.2,0.2-0.3L931,95c0.1-0.1,0.2-0.1,0.3,0l9.8,5.7
			c0.1,0.1,0.2,0.2,0.2,0.3v11.3c0,0.1-0.1,0.2-0.1,0.3l-9.8,5.7c-0.1,0-0.2,0-0.3,0l-2.5-1.5c-0.1,0-0.2,0-0.3,0
			c-0.7,0.4-0.8,0.4-1.5,0.7c-0.2,0.1-0.4,0.1,0.1,0.4l3.3,1.9c0.3,0.2,0.7,0.3,1,0.3c0.4,0,0.7-0.1,1-0.3l9.8-5.7
			c0.6-0.4,1-1.1,1-1.8V101c0-0.7-0.4-1.4-1-1.8l-9.8-5.7C931.8,93.3,931.5,93.2,931.1,93.2L931.1,93.2z"/>
		<path id="XMLID_1975_" class="st8" d="M933.8,101.3c-2.8,0-4.5,1.2-4.5,3.2c0,2.1,1.7,2.7,4.3,3c3.2,0.3,3.5,0.8,3.5,1.4
			c0,1.1-0.9,1.6-2.9,1.6c-2.6,0-3.2-0.6-3.4-1.9c0-0.1-0.1-0.2-0.3-0.2h-1.3c-0.2,0-0.3,0.1-0.3,0.3c0,1.7,0.9,3.6,5.2,3.6
			c3.1,0,4.9-1.2,4.9-3.4c0-2.1-1.4-2.7-4.5-3.1c-3-0.4-3.3-0.6-3.3-1.3c0-0.6,0.2-1.4,2.5-1.4c2,0,2.8,0.4,3.1,1.8
			c0,0.1,0.1,0.2,0.3,0.2h1.3c0.1,0,0.2,0,0.2-0.1c0.1-0.1,0.1-0.1,0.1-0.2C938.5,102.4,936.9,101.3,933.8,101.3L933.8,101.3z"/>
	</g>
	<path id="XMLID_1966_" class="st9" d="M951.3,53.8c-0.1,0-0.2,0-0.3,0.1c-0.2,0.1-0.3,0.3-0.3,0.5v16c0,0.2-0.1,0.3-0.2,0.4
		c-0.1,0.1-0.3,0.1-0.4,0l-2.6-1.5c-0.4-0.2-0.9-0.2-1.3,0l-10.4,6c-0.4,0.2-0.6,0.7-0.6,1.1v12c0,0.4,0.2,0.9,0.6,1.1l10.4,6
		c0.4,0.2,0.9,0.2,1.3,0l10.4-6c0.4-0.2,0.6-0.6,0.6-1.1v-30c0-0.5-0.2-0.9-0.6-1.1l-6.2-3.5C951.5,53.8,951.4,53.8,951.3,53.8
		L951.3,53.8z M884.4,68.8c-0.2,0-0.4,0-0.6,0.1l-10.4,6c-0.4,0.2-0.6,0.6-0.6,1.1l0,16.1c0,0.2,0.1,0.4,0.3,0.5
		c0.2,0.1,0.4,0.1,0.6,0l6.2-3.5c0.4-0.2,0.6-0.6,0.6-1.1v-7.5c0-0.4,0.2-0.9,0.6-1.1l2.6-1.5c0.2-0.1,0.4-0.2,0.6-0.2
		c0.2,0,0.4,0.1,0.6,0.2l2.6,1.5c0.4,0.2,0.6,0.6,0.6,1.1v7.5c0,0.4,0.3,0.9,0.6,1.1l6.2,3.5c0.2,0.1,0.4,0.1,0.6,0
		c0.2-0.1,0.3-0.3,0.3-0.5l0-16.1c0-0.4-0.2-0.9-0.6-1.1L885,69c-0.2-0.1-0.4-0.1-0.6-0.1H884.4z M977.9,69c-0.2,0-0.4,0.1-0.6,0.2
		l-10.4,6c-0.4,0.2-0.6,0.6-0.6,1.1v12c0,0.5,0.3,0.9,0.6,1.1l10.3,5.9c0.4,0.2,0.8,0.2,1.2,0l6.3-3.5c0.2-0.1,0.3-0.3,0.3-0.5
		c0-0.2-0.1-0.4-0.3-0.5l-10.5-6c-0.2-0.1-0.3-0.3-0.3-0.6v-3.8c0-0.2,0.1-0.4,0.3-0.5l3.3-1.9c0.2-0.1,0.4-0.1,0.6,0l3.3,1.9
		c0.2,0.1,0.3,0.3,0.3,0.5v3c0,0.2,0.1,0.4,0.3,0.5c0.2,0.1,0.4,0.1,0.6,0l6.2-3.6c0.4-0.2,0.6-0.6,0.6-1.1v-2.9
		c0-0.4-0.2-0.9-0.6-1.1l-10.3-6C978.3,69,978.1,69,977.9,69L977.9,69z M946.8,77.9c0.1,0,0.1,0,0.2,0l3.6,2.1
		c0.1,0.1,0.2,0.2,0.2,0.3v4.1c0,0.1-0.1,0.2-0.2,0.3l-3.6,2.1c-0.1,0.1-0.2,0.1-0.3,0l-3.6-2.1c-0.1-0.1-0.2-0.2-0.2-0.3v-4.1
		c0-0.1,0.1-0.2,0.2-0.3l3.6-2.1C946.7,77.9,946.7,77.9,946.8,77.9L946.8,77.9L946.8,77.9z"/>
	<path id="XMLID_1950_" class="st8" d="M915.6,68.9c-0.2,0-0.4,0.1-0.6,0.2l-10.4,6c-0.4,0.2-0.6,0.7-0.6,1.1v12
		c0,0.5,0.2,0.9,0.6,1.1l10.4,6c0.4,0.2,0.9,0.2,1.3,0l10.4-6c0.4-0.2,0.6-0.6,0.6-1.1v-12c0-0.4-0.2-0.9-0.6-1.1l-10.4-6
		C916.1,69,915.8,68.9,915.6,68.9L915.6,68.9z M977.9,79.6c0,0-0.1,0-0.1,0l-2,1.2c-0.1,0-0.1,0.1-0.1,0.2v2.3c0,0.1,0,0.2,0.1,0.2
		l2,1.1c0.1,0,0.2,0,0.2,0l2-1.1c0.1,0,0.1-0.1,0.1-0.2V81c0-0.1,0-0.2-0.1-0.2l-2-1.2C977.9,79.6,977.9,79.6,977.9,79.6L977.9,79.6
		z"/>
</g>
<g id="XMLID_1980_">
	<path id="XMLID_1984_" class="st10" d="M1055.5,78.7c-0.2,0-0.3-0.1-0.2-0.3l1.1-1.5c0.1-0.2,0.4-0.3,0.6-0.3h19.5
		c0.2,0,0.3,0.2,0.2,0.3l-0.9,1.4c-0.1,0.2-0.4,0.3-0.5,0.3L1055.5,78.7z M1047.2,83.7c-0.2,0-0.3-0.1-0.2-0.3l1.1-1.5
		c0.1-0.2,0.4-0.3,0.6-0.3h24.9c0.2,0,0.3,0.2,0.3,0.3l-0.4,1.3c-0.1,0.2-0.3,0.3-0.5,0.3L1047.2,83.7z M1060.4,88.7
		c-0.2,0-0.3-0.2-0.2-0.3l0.8-1.4c0.1-0.2,0.3-0.3,0.5-0.3h10.9c0.2,0,0.3,0.2,0.3,0.4l-0.1,1.3c0,0.2-0.2,0.4-0.4,0.4L1060.4,88.7z
		 M1117,77.7c-3.4,0.9-5.8,1.5-9.2,2.4c-0.8,0.2-0.9,0.3-1.6-0.5c-0.8-0.9-1.4-1.5-2.6-2.1c-3.4-1.7-6.8-1.2-9.9,0.8
		c-3.7,2.4-5.6,5.9-5.6,10.4c0.1,4.4,3.1,8,7.4,8.6c3.7,0.5,6.8-0.8,9.3-3.6c0.5-0.6,0.9-1.3,1.5-2h-10.5c-1.1,0-1.4-0.7-1-1.6
		c0.7-1.7,2-4.5,2.8-5.9c0.2-0.3,0.5-0.9,1.4-0.9h19.8c-0.1,1.5-0.1,2.9-0.3,4.4c-0.6,3.9-2.1,7.5-4.5,10.7
		c-3.9,5.2-9.1,8.4-15.5,9.3c-5.3,0.7-10.3-0.3-14.7-3.6c-4-3.1-6.3-7.1-6.9-12.1c-0.7-6,1-11.3,4.6-16c3.9-5.1,9-8.3,15.3-9.4
		c5.1-0.9,10-0.3,14.4,2.7c2.9,1.9,5,4.5,6.3,7.7C1117.9,77.2,1117.7,77.5,1117,77.7z"/>
	<path id="XMLID_1981_" class="st10" d="M1135.1,107.8c-5-0.1-9.5-1.5-13.3-4.8c-3.2-2.8-5.2-6.3-5.9-10.5c-1-6.2,0.7-11.6,4.4-16.5
		c4-5.2,8.8-8,15.3-9.1c5.6-1,10.8-0.4,15.5,2.8c4.3,2.9,7,6.9,7.7,12.2c0.9,7.4-1.2,13.4-6.3,18.5c-3.6,3.7-8,5.9-13.1,7
		C1138,107.6,1136.5,107.7,1135.1,107.8z M1148.1,85.8c0-0.7,0-1.3-0.2-1.8c-1-5.4-5.9-8.4-11.1-7.2c-5.1,1.1-8.3,4.4-9.5,9.5
		c-1,4.3,1.1,8.6,5,10.3c3,1.3,6,1.1,8.9-0.3C1145.5,94,1147.8,90.5,1148.1,85.8L1148.1,85.8z"/>
</g>
<g id="XMLID_1990_">
	<path id="XMLID_2008_" class="st11" d="M1318.1,75.7c-0.1,0-0.2,0.2-0.2,0.3c0,0.7,0,2.6,0,3.9c0,0,0.1,0.1,0.1,0.1
		c0.3,0,0.9,0,1.5,0c0.8,0,1.2-0.1,1.5-0.2c0.6-0.3,1-1,1-1.8c0-1.7-1.2-2.4-3-2.4C1318.8,75.6,1318.4,75.6,1318.1,75.7L1318.1,75.7
		z M1322.8,83.7c0-1.8-1.3-2.8-3.7-2.8c-0.1,0-0.9,0-1,0c-0.1,0-0.1,0.1-0.1,0.1c0,1.3,0,3.3,0,4.1c0,0.3,0.3,0.8,0.6,1
		c0.3,0.2,1.1,0.2,1.6,0.2C1321.6,86.4,1322.8,85.6,1322.8,83.7L1322.8,83.7z M1314.5,74.7c0.2,0,0.7,0.1,2.1,0.1c1.3,0,2.4,0,3.6,0
		c1.6,0,3.7,0.6,3.7,2.9c0,1.2-0.8,2.1-1.9,2.5c-0.1,0-0.1,0.1,0,0.1c1.5,0.4,2.9,1.3,2.9,3.1c0,1.7-1.1,2.8-2.7,3.5
		c-1,0.4-2.1,0.6-3.4,0.6c-0.9,0-3.4-0.1-4.8-0.1c-0.1-0.1,0.1-0.7,0.2-0.8c0.3,0,0.6,0,0.9-0.1c0.5-0.1,0.5-0.3,0.6-1
		c0-0.6,0-2.9,0-4.5c0-2.2,0-3.7,0-4.4c0-0.6-0.2-0.7-0.6-0.8c-0.3-0.1-0.8-0.1-1.2-0.2C1314,75.4,1314.4,74.8,1314.5,74.7
		L1314.5,74.7z M1304.1,85.9c0.4,0.3,1.3,0.5,2,0.5c1,0,1.9-0.2,2.9-1c1-0.9,1.6-2.2,1.6-4.3c0-2-0.8-3.7-2.4-4.7
		c-0.9-0.6-2.1-0.8-3.4-0.8c-0.4,0-0.8,0-1,0.1c-0.1,0-0.2,0.2-0.2,0.3c0,0.4,0,3.1,0,4.8c0,1.7,0,4,0,4.3
		C1303.7,85.3,1303.8,85.7,1304.1,85.9L1304.1,85.9z M1300,74.7c0.3,0,1.7,0.1,2.3,0.1c1.1,0,1.9-0.1,4.1-0.1c1.8,0,3.3,0.5,4.4,1.4
		c1.3,1.1,2,2.7,2,4.6c0,2.7-1.2,4.3-2.5,5.2c-1.2,0.9-2.9,1.5-5.2,1.5c-1.2,0-3.3,0-5.1-0.1h0c-0.1-0.2,0.1-0.8,0.3-0.8
		c0.5-0.1,0.6-0.1,0.8-0.2c0.4-0.1,0.5-0.3,0.5-1c0.1-1.2,0-2.7,0-4.4c0-1.2,0-3.6,0-4.3c-0.1-0.6-0.3-0.8-0.9-0.9
		c-0.3-0.1-0.6-0.1-1.1-0.2C1299.5,75.4,1299.9,74.8,1300,74.7L1300,74.7z"/>
	<path id="XMLID_1998_" class="st12" d="M1278.1,86.6c-0.5-0.1-0.8-0.1-1.2-0.3c-0.1,0-0.1-0.2-0.1-0.3c0-0.6,0-2.4,0-3.6
		c0-1-0.2-1.8-0.6-2.4c-0.5-0.7-1.2-1.1-2.1-1.1c-0.8,0-1.9,0.5-2.7,1.3c0,0-0.2,0.1-0.1-0.1c0-0.2,0-0.6,0.1-0.9
		c0-0.3-0.1-0.4-0.1-0.4c-0.6,0.3-2.2,0.7-2.8,0.7c-0.4,0.1-0.5,0.5-0.1,0.6h0c0.5,0.1,0.8,0.3,1.1,0.5c0.2,0.1,0.2,0.3,0.2,0.5
		c0,1.4,0,3.4,0,4.6c0,0.5-0.1,0.6-0.5,0.7l0,0c-0.3,0.1-0.5,0.1-0.8,0.1c-0.1,0.1-0.1,0.7,0,0.8c0.2,0,1.2-0.1,2.1-0.1
		c1.2,0,1.8,0.1,2.1,0.1c0.1-0.1,0.2-0.7,0.1-0.8c-0.3,0-0.6-0.1-0.8-0.1c-0.3-0.1-0.4-0.2-0.4-0.6c0-1,0-3,0-4.3
		c0-0.4,0.1-0.6,0.2-0.7c0.4-0.4,1.1-0.6,1.7-0.6c0.6,0,1,0.2,1.2,0.4c0.4,0.3,0.5,0.8,0.6,1.1c0.1,0.8,0.1,2.3,0.1,3.6
		c0,0.7-0.1,0.9-0.3,1c-0.1,0.1-0.5,0.1-0.8,0.2c-0.1,0.1-0.1,0.7,0,0.8c0.5,0,1.1-0.1,2-0.1c1.1,0,1.8,0.1,2.1,0.1
		C1278.2,87.3,1278.2,86.8,1278.1,86.6L1278.1,86.6z M1283.1,79.7c-1,0-1.6,0.7-1.6,1.9c0,1.2,0.5,2.5,2,2.5c0.3,0,0.7-0.1,0.9-0.4
		c0.3-0.3,0.6-1,0.6-1.7C1285.1,80.6,1284.3,79.7,1283.1,79.7L1283.1,79.7z M1283,87.7c-0.4,0-0.6,0.1-0.8,0.2
		c-0.8,0.5-1.1,1-1.1,1.5c0,0.5,0.2,0.9,0.6,1.3c0.5,0.4,1.2,0.7,2.2,0.7c1.8,0,2.7-1,2.7-2c0-0.7-0.3-1.1-1-1.4
		C1285,87.8,1284.1,87.7,1283,87.7L1283,87.7z M1283.1,92.4c-1.1,0-1.9-0.2-2.6-0.8c-0.7-0.5-1-1.3-1-1.8c0-0.1,0-0.5,0.4-0.9
		c0.2-0.2,0.6-0.6,1.7-1.3c0,0,0.1,0,0.1-0.1c0,0,0-0.1-0.1-0.1c-0.8-0.3-1.1-0.8-1.2-1.1v0c0-0.1-0.1-0.2,0.1-0.3
		c0.1-0.1,0.3-0.2,0.5-0.3c0.3-0.2,0.6-0.4,0.8-0.5c0,0,0-0.1,0-0.1c0,0,0-0.1-0.1-0.1c-1.3-0.4-1.9-1.4-1.9-2.8
		c0-0.9,0.4-1.7,1.2-2.3c0.5-0.4,1.8-0.9,2.6-0.9h0.1c0.8,0,1.3,0.2,2,0.4c0.4,0.1,0.7,0.2,1.2,0.2c0.7,0,1-0.2,1.3-0.5
		c0,0,0.1,0.1,0.1,0.4c0,0.2-0.1,0.6-0.2,0.8c-0.1,0.2-0.5,0.3-0.8,0.3h-0.1c-0.3,0-0.5-0.1-0.5-0.1l-0.1,0c0,0,0,0.1,0,0.1l0,0
		c0,0.2,0.1,0.6,0.1,0.8c0,1.5-0.6,2.1-1.2,2.6c-0.6,0.4-1.3,0.7-2.1,0.8c0,0-0.1,0-0.3,0c-0.1,0-0.2,0-0.2,0h0
		c-0.1,0-0.5,0.2-0.5,0.5c0,0.3,0.2,0.6,0.9,0.6c0.2,0,0.3,0,0.5,0c1,0.1,2.3,0.2,2.9,0.4c0.8,0.3,1.4,1,1.4,1.9
		c0,1.3-1,2.6-2.5,3.4C1284.7,92.2,1284,92.4,1283.1,92.4L1283.1,92.4z M1293.4,79.8c-0.4,0-0.7,0.1-1,0.3c-0.7,0.4-1.1,1.3-1.1,2.6
		c0,2.4,1.2,4,2.9,4c0.5,0,0.9-0.1,1.2-0.4c0.5-0.4,0.8-1.3,0.8-2.5C1296.3,81.4,1295.1,79.8,1293.4,79.8L1293.4,79.8z M1293.7,87.5
		c-3.1,0-4.2-2.3-4.2-4.4c0-1.5,0.6-2.6,1.8-3.4c0.8-0.5,1.9-0.8,2.8-0.8c2.3,0,4,1.7,4,4.1c0,1.6-0.6,2.9-1.9,3.7
		C1295.6,87.2,1294.6,87.5,1293.7,87.5L1293.7,87.5L1293.7,87.5z M1261.6,79.8c-0.4,0-0.7,0.1-1,0.3c-0.7,0.4-1.1,1.3-1.1,2.6
		c0,2.4,1.2,4,2.9,4c0.5,0,0.9-0.1,1.2-0.4c0.5-0.4,0.8-1.3,0.8-2.5C1264.5,81.4,1263.3,79.8,1261.6,79.8L1261.6,79.8z M1261.9,87.5
		c-3.1,0-4.2-2.3-4.2-4.4c0-1.5,0.6-2.6,1.8-3.4c0.8-0.5,1.9-0.8,2.8-0.8c2.3,0,4,1.7,4,4.1c0,1.6-0.6,2.9-1.9,3.7
		C1263.8,87.2,1262.8,87.5,1261.9,87.5L1261.9,87.5z M1241.3,87.4c0-0.1-0.1-0.2-0.1-0.4c0-0.1,0-0.2,0.1-0.3
		c0.4-0.1,0.6-0.1,0.8-0.2c0.4-0.1,0.5-0.3,0.5-0.7c0.1-1.1,0.1-3.1,0-4.6v0c0-0.2,0-0.4-0.2-0.5c-0.3-0.2-0.6-0.3-1.1-0.5
		c-0.2-0.1-0.3-0.1-0.3-0.3c0-0.1,0.1-0.2,0.3-0.3c0.6-0.1,2.1-0.4,2.8-0.7c0,0,0.1,0.1,0.1,0.3l0,0.2c0,0.2,0,0.4,0,0.7
		c0,0.1,0.1,0.1,0.1,0.1c0,0,0.1,0,0.1,0c1.2-0.9,2.2-1.2,2.7-1.2c0.9,0,1.6,0.4,2.1,1.3c0,0.1,0.1,0.1,0.1,0.1c0,0,0.1,0,0.1-0.1
		c1.1-0.8,2.1-1.3,2.8-1.3c1.7,0,2.7,1.2,2.7,3.4c0,0.6,0,1.4,0,2.1c0,0.6,0,1.2,0,1.6c0,0.1,0.1,0.4,0.3,0.4c0.3,0.1,0.6,0.2,1,0.3
		h0c0,0.1,0,0.6-0.1,0.7c-0.1,0-0.3,0-0.5,0c-0.5,0-0.9,0-1.4,0c-1.1,0-1.7,0-2.3,0.1c0-0.1-0.1-0.6,0-0.7c0.3-0.1,0.5-0.1,0.7-0.2
		c0.4-0.1,0.5-0.3,0.5-0.7c0-0.3,0.1-3.3,0-4c-0.1-0.7-0.6-1.6-1.8-1.6c-0.5,0-1.2,0.2-1.8,0.7c0,0-0.1,0.1-0.1,0.2v0
		c0.1,0.4,0.1,0.8,0.1,1.5v1.2c0,0.8,0,1.6,0,2.1c0,0.4,0.2,0.5,0.4,0.6c0.1,0,0.2,0,0.3,0.1c0.2,0,0.3,0.1,0.6,0.1
		c0,0.1,0,0.3,0,0.5c0,0.1-0.1,0.2-0.1,0.2c-0.6,0-1.2,0-2.2,0c-0.3,0-0.7,0-1.1,0c-0.3,0-0.6,0-0.8,0c0,0-0.1-0.2-0.1-0.4
		c0-0.2,0-0.3,0.1-0.3c0.1,0,0.2,0,0.3,0c0.2,0,0.4-0.1,0.6-0.1c0.3-0.1,0.4-0.3,0.4-0.6c0.1-0.9,0.1-3.5,0-4.1
		c-0.2-1-0.8-1.6-1.8-1.6c-0.6,0-1.3,0.3-1.8,0.7c-0.1,0.1-0.2,0.3-0.2,0.4v1.1c0,1.3,0,2.9,0,3.6c0,0.2,0.1,0.5,0.5,0.6
		c0.1,0,0.2,0.1,0.4,0.1l0.3,0.1c0,0.1,0,0.5-0.1,0.7c-0.2,0-0.4,0-0.6,0c-0.4,0-0.9,0-1.4,0c-0.6,0-1.1,0-1.4,0
		C1241.7,87.4,1241.5,87.4,1241.3,87.4L1241.3,87.4z"/>
	<path id="XMLID_1997_" class="st3" d="M1231.8,91.7l-0.7-0.3c0,0,0.1-3.8-1.3-4c-0.9-1,0.1-44.4,3.4-0.1c0,0-1.1,0.6-1.3,1.5
		C1231.6,89.7,1231.8,91.7,1231.8,91.7L1231.8,91.7z"/>
	<path id="XMLID_1996_" class="st13" d="M1231.8,91.7l-0.7-0.3c0,0,0.1-3.8-1.3-4c-0.9-1,0.1-44.4,3.4-0.1c0,0-1.1,0.6-1.3,1.5
		C1231.6,89.7,1231.8,91.7,1231.8,91.7L1231.8,91.7z"/>
	<path id="XMLID_1995_" class="st3" d="M1232.2,88c0,0,6.5-4.3,5-13.1c-1.5-6.4-4.9-8.6-5.3-9.4c-0.4-0.6-0.8-1.6-0.8-1.6l0.3,17.9
		C1231.3,81.9,1230.8,87.4,1232.2,88"/>
	<path id="XMLID_1994_" class="st14" d="M1232.2,88c0,0,6.5-4.3,5-13.1c-1.5-6.4-4.9-8.6-5.3-9.4c-0.4-0.6-0.8-1.6-0.8-1.6l0.3,17.9
		C1231.3,81.9,1230.8,87.4,1232.2,88"/>
	<path id="XMLID_1993_" class="st3" d="M1230.7,88.3c0,0-6.1-4.1-5.7-11.5c0.3-7.3,4.6-10.9,5.5-11.5c0.5-0.6,0.6-0.8,0.6-1.4
		c0.4,0.8,0.3,12.1,0.4,13.5C1231.5,82.5,1231.1,87.3,1230.7,88.3z"/>
	<path id="XMLID_1991_" class="st15" d="M1230.7,88.3c0,0-6.1-4.1-5.7-11.5c0.3-7.3,4.6-10.9,5.5-11.5c0.5-0.6,0.6-0.8,0.6-1.4
		c0.4,0.8,0.3,12.1,0.4,13.5C1231.5,82.5,1231.1,87.3,1230.7,88.3z"/>
</g>
<g id="XMLID_2015_">
	<path id="XMLID_2027_" class="st16" d="M1422.9,102.5h-3.6c-0.1-6-0.5-11.7-1-17h0l-5.4,17h-2.7l-5.4-17h0
		c-0.4,5.1-0.7,10.7-0.8,17h-3.2c0.2-7.6,0.7-14.7,1.6-21.3h4.4l5.1,15.6h0l5.2-15.6h4.2C1422.1,89,1422.7,96.1,1422.9,102.5
		 M1438.3,86.8c-1.4,7.9-3.4,13.6-5.7,17.2c-1.9,2.8-3.9,4.1-6.1,4.1c-0.6,0-1.3-0.2-2.2-0.5v-1.9c0.4,0.1,0.9,0.1,1.5,0.1
		c1,0,1.9-0.3,2.5-0.9c0.8-0.7,1.1-1.5,1.1-2.3c0-0.6-0.3-1.8-0.9-3.6l-3.9-12.1h3.5l2.8,9.1c0.6,2.1,0.9,3.5,0.8,4.3
		c1.5-4.1,2.6-8.6,3.2-13.4H1438.3L1438.3,86.8z"/>
	<path id="XMLID_2022_" class="st17" d="M1485.8,102.5h-10.1V81.2h3.4v18.7h6.7V102.5z M1473,103l-3.9-1.9c0.3-0.3,0.7-0.6,1-1
		c1.7-2,2.5-4.8,2.5-8.7c0-7-2.8-10.6-8.3-10.6c-2.7,0-4.8,0.9-6.3,2.7c-1.7,2-2.5,4.8-2.5,8.6c0,3.7,0.7,6.5,2.2,8.2
		c1.4,1.6,3.4,2.4,6.1,2.4c1,0,1.9-0.1,2.8-0.4l5.1,3L1473,103z M1460.3,98.2c-0.9-1.4-1.3-3.6-1.3-6.7c0-5.4,1.6-8,4.9-8
		c1.7,0,3,0.6,3.8,1.9c0.9,1.4,1.3,3.6,1.3,6.6c0,5.4-1.6,8.1-4.9,8.1C1462.3,100.2,1461.1,99.5,1460.3,98.2 M1453.9,96.6
		c0,1.8-0.7,3.3-2,4.5c-1.3,1.2-3.1,1.7-5.3,1.7c-2.1,0-4.1-0.7-6.1-2l0.9-1.8c1.7,0.8,3.2,1.3,4.6,1.3c1.3,0,2.3-0.3,3-0.8
		c0.7-0.6,1.2-1.4,1.2-2.4c0-1.3-0.9-2.3-2.5-3.3c-1.5-0.8-4.5-2.5-4.5-2.5c-1.6-1.2-2.4-2.4-2.4-4.5c0-1.7,0.6-3.1,1.8-4.2
		c1.2-1.1,2.8-1.6,4.7-1.6c2,0,3.8,0.5,5.4,1.6l-0.8,1.8c-1.4-0.6-2.8-0.9-4.1-0.9c-1.1,0-1.9,0.3-2.5,0.8c-0.6,0.5-1,1.2-1,2
		c0,1.3,0.9,2.4,2.6,3.3c1.5,0.8,4.6,2.6,4.6,2.6C1453.1,93.3,1453.9,94.5,1453.9,96.6"/>
	<path id="XMLID_2019_" class="st16" d="M1490,74.1c-2.1-0.1-3.7,0.2-5,0.7c-0.4,0.2-1,0.2-1.1,0.6c0.2,0.2,0.2,0.5,0.4,0.8
		c0.3,0.5,0.8,1.2,1.3,1.6c0.5,0.4,1.1,0.8,1.6,1.2c1,0.6,2.1,1,3.1,1.6c0.6,0.4,1.1,0.8,1.7,1.2c0.3,0.2,0.5,0.5,0.8,0.7v-0.1
		c-0.2-0.2-0.2-0.6-0.4-0.8l-0.8-0.7c-0.7-1-1.7-1.9-2.7-2.6c-0.8-0.6-2.6-1.3-3-2.3l-0.1-0.1c0.6-0.1,1.2-0.3,1.8-0.4
		c0.9-0.2,1.7-0.2,2.6-0.4c0.4-0.1,0.8-0.2,1.2-0.4v-0.2c-0.5-0.5-0.8-1.1-1.3-1.5c-1.3-1.1-2.8-2.2-4.2-3.2
		c-0.8-0.5-1.8-0.8-2.7-1.3c-0.3-0.2-0.8-0.2-1-0.5c-0.5-0.6-0.7-1.3-1.1-2c-0.7-1.4-1.5-3-2.1-4.5c-0.5-1-0.7-2-1.3-2.9
		c-2.7-4.4-5.5-7-10-9.6c-1-0.5-2.1-0.8-3.3-1.1l-1.9-0.1c-0.4-0.2-0.8-0.7-1.2-0.9c-1.5-0.9-5.2-2.9-6.3-0.3
		c-0.7,1.7,1,3.3,1.6,4.2c0.4,0.6,1,1.3,1.3,1.9c0.2,0.4,0.2,0.9,0.4,1.4c0.4,1.1,0.8,2.4,1.3,3.4c0.3,0.5,0.6,1.1,1,1.6
		c0.2,0.3,0.6,0.4,0.6,0.9c-0.4,0.5-0.4,1.3-0.6,1.9c-0.9,2.9-0.6,6.5,0.7,8.6c0.4,0.6,1.4,2.1,2.7,1.5c1.2-0.5,0.9-1.9,1.2-3.2
		c0.1-0.3,0-0.5,0.2-0.7v0c0.4,0.7,0.7,1.4,1.1,2.1c0.8,1.3,2.2,2.6,3.3,3.4c0.6,0.5,1.1,1.3,1.9,1.5v-0.1h0
		c-0.2-0.2-0.4-0.3-0.6-0.5c-0.5-0.5-1-1-1.3-1.5c-1.1-1.4-2-3-2.9-4.7c-0.4-0.8-0.8-1.7-1.1-2.5c-0.2-0.3-0.2-0.8-0.4-0.9
		c-0.4,0.6-1,1.1-1.2,1.7c-0.5,1.1-0.5,2.5-0.7,3.9l-0.1,0c-0.8-0.2-1.1-1.1-1.4-1.8c-0.8-1.8-0.9-4.8-0.2-6.9
		c0.2-0.5,1-2.2,0.6-2.8c-0.2-0.5-0.7-0.8-1-1.2c-0.3-0.5-0.7-1.1-0.9-1.6c-0.6-1.4-0.9-3-1.6-4.5c-0.3-0.7-0.8-1.4-1.3-2
		c-0.5-0.7-1-1.2-1.4-2c-0.1-0.3-0.3-0.8-0.1-1.1c0.1-0.2,0.2-0.3,0.4-0.3c0.3-0.3,1.3,0.1,1.6,0.2c1,0.4,1.8,0.7,2.6,1.3
		c0.4,0.3,0.7,0.7,1.2,0.9h0.5c0.8,0.2,1.7,0.1,2.5,0.3c1.4,0.4,2.6,1.1,3.7,1.8c3.4,2.1,6.1,5.2,8,8.8c0.3,0.6,0.4,1.1,0.7,1.7
		c0.5,1.3,1.2,2.5,1.7,3.8c0.5,1.2,1.1,2.4,1.8,3.4c0.4,0.5,1.9,0.8,2.6,1.1c0.5,0.2,1.3,0.4,1.8,0.7c0.9,0.5,1.7,1.2,2.6,1.8
		C1488.7,72.9,1490,73.6,1490,74.1 M1463.8,51.7c-0.4,0-0.7,0-1.1,0.1v0.1h0c0.2,0.4,0.6,0.7,0.8,1.1c0.2,0.4,0.4,0.8,0.6,1.2
		l0.1-0.1c0.4-0.3,0.5-0.7,0.5-1.3c-0.2-0.2-0.2-0.4-0.3-0.5C1464.3,52.1,1464,51.9,1463.8,51.7"/>
	<path id="XMLID_2016_" class="st17" d="M1492.5,102.5h0.5v-2.6h-0.8l-0.7,1.8l-0.7-1.8h-0.8v2.6h0.5v-2h0l0.7,2h0.4l0.7-2V102.5z
		 M1488.2,102.5h0.6v-2.2h0.7v-0.4h-2.1v0.4h0.8V102.5L1488.2,102.5z"/>
</g>
<g id="Layer_x0020_3">
	<path id="XMLID_2041_" class="st18" d="M1632.8,89c0.3-2.9,0.2-3.3,2.4-2.8l0.5,0c1.6,0.1,3.8-0.3,5-0.8c2.7-1.3,4.3-3.3,1.6-2.8
		c-6.1,1.3-6.5-0.8-6.5-0.8c6.4-9.5,9.1-21.6,6.8-24.6c-6.3-8.1-17.3-4.3-17.4-4.2l-0.1,0c-1.2-0.2-2.5-0.4-4.1-0.4
		c-2.8,0-4.8,0.7-6.4,1.9c0,0-19.5-8-18.6,10.1c0.2,3.9,5.5,29.2,11.9,21.6c2.3-2.8,4.6-5.2,4.6-5.2c1.1,0.7,2.5,1.1,3.9,1l0.1-0.1
		c0,0.3,0,0.7,0,1.1c-1.6,1.8-1.2,2.2-4.4,2.8c-3.3,0.7-1.4,1.9-0.1,2.2c1.5,0.4,5.1,0.9,7.5-2.4l-0.1,0.4c0.6,0.5,0.6,3.7,0.7,6
		c0.1,2.3,0.2,4.4,0.7,5.7c0.5,1.3,1,4.5,5.3,3.6C1629.8,100.4,1632.5,99.3,1632.8,89"/>
	<path id="XMLID_2040_" class="st19" d="M1642.4,82.6c-6.1,1.3-6.5-0.8-6.5-0.8c6.4-9.5,9.1-21.6,6.8-24.6
		c-6.3-8.1-17.3-4.3-17.4-4.2l-0.1,0c-1.2-0.2-2.5-0.4-4.1-0.4c-2.8,0-4.8,0.7-6.4,1.9c0,0-19.5-8-18.6,10.1
		c0.2,3.9,5.5,29.2,11.9,21.6c2.3-2.8,4.6-5.2,4.6-5.2c1.1,0.7,2.5,1.1,3.9,1l0.1-0.1c0,0.3,0,0.7,0,1.1c-1.6,1.8-1.2,2.2-4.4,2.8
		c-3.3,0.7-1.4,1.9-0.1,2.2c1.5,0.4,5.1,0.9,7.5-2.4l-0.1,0.4c0.6,0.5,1.1,3.3,1,5.9c-0.1,2.6-0.1,4.3,0.4,5.7
		c0.5,1.4,1,4.5,5.3,3.6c3.6-0.8,5.5-2.8,5.7-6.1c0.2-2.4,0.6-2,0.6-4.1l0.3-1c0.4-3.2,0.1-4.3,2.3-3.8l0.5,0c1.6,0.1,3.8-0.3,5-0.8
		C1643.4,84.1,1645,82,1642.4,82.6L1642.4,82.6z"/>
	<path id="XMLID_2039_" class="st20" d="M1619.8,84.4c-0.2,6,0,12,0.6,13.5c0.6,1.5,1.8,4.3,6.2,3.4c3.6-0.8,4.9-2.3,5.5-5.6
		c0.4-2.4,1.2-9.2,1.3-10.5"/>
	<path id="XMLID_2038_" class="st20" d="M1614.7,54.4c0,0-19.5-8-18.6,10.2c0.2,3.9,5.5,29.2,11.9,21.6c2.3-2.8,4.4-5,4.4-5"/>
	<path id="XMLID_2037_" class="st20" d="M1625.2,53c-0.7,0.2,10.9-4.2,17.4,4.2c2.3,3-0.4,15-6.8,24.6"/>
	<path id="XMLID_2036_" class="st21" d="M1635.8,81.7c0,0,0.4,2.1,6.5,0.8c2.7-0.6,1.1,1.5-1.6,2.8c-2.2,1-7.2,1.3-7.3-0.1
		C1633.2,81.5,1636,82.6,1635.8,81.7c-0.2-0.8-1.4-1.6-2.3-3.7c-0.7-1.8-10-15.3,2.6-13.3c0.5-0.1-3.3-12-15.1-12.2
		c-11.8-0.2-11.4,14.5-11.4,14.5"/>
	<path id="XMLID_2035_" class="st20" d="M1616.5,82.9c-1.6,1.8-1.2,2.2-4.4,2.8c-3.3,0.7-1.4,1.9-0.1,2.2c1.5,0.4,5.1,0.9,7.5-2.4
		c0.7-1,0-2.7-1-3.1C1618,82.3,1617.4,82,1616.5,82.9L1616.5,82.9z"/>
	<path id="XMLID_2034_" class="st20" d="M1616.4,82.9c-0.2-1.1,0.4-2.4,0.9-3.9c0.8-2.3,2.8-4.5,1.2-11.6c-1.2-5.3-8.9-1.1-8.9-0.4
		c0,0.7,0.3,3.7-0.1,7.1c-0.6,4.5,2.8,8.2,6.8,7.8"/>
	<path id="XMLID_2033_" class="st22" d="M1614.6,66.9c0,0.2,0.5,0.9,1.1,1c0.6,0.1,1.2-0.4,1.2-0.7c0-0.2-0.5-0.5-1.1-0.6
		C1615.2,66.5,1614.6,66.7,1614.6,66.9L1614.6,66.9z"/>
	<path id="XMLID_2032_" class="st23" d="M1633.9,66.4c0,0.2-0.5,0.9-1.1,1c-0.6,0.1-1.2-0.4-1.2-0.7c0-0.2,0.5-0.5,1.1-0.6
		S1633.8,66.2,1633.9,66.4L1633.9,66.4z"/>
	<path id="XMLID_2031_" class="st20" d="M1636.1,64.7c0.1,1.9-0.4,3.2-0.5,5.3c-0.1,3,1.4,6.4-0.9,9.8"/>
	<path id="XMLID_262_" class="st24" d="M1593.7,57.1"/>
</g>
<g id="XMLID_2048_">
	<path id="path35" class="st25" d="M1814.4,85.1c0,3.2-1.7,4.7-4.8,4.8v0h-38.1v0c-3.1-0.1-4.8-1.6-4.8-4.8c0-3.2,1.7-4.7,4.8-4.8v0
		h38.1v0C1812.8,80.3,1814.4,81.9,1814.4,85.1 M1809.7,92.2L1809.7,92.2l-38.1,0v0c-3.1,0.1-4.8,1.6-4.8,4.8c0,3.2,1.7,4.7,4.8,4.8
		v0h38.1v0c3.1-0.1,4.8-1.6,4.8-4.8C1814.4,93.8,1812.8,92.3,1809.7,92.2 M1821.6,66L1821.6,66c-3.1,0.1-4.8,1.6-4.8,4.8V97
		c0,3.2,1.7,4.7,4.8,4.8v0c4.6-0.2,7.1-4.8,7.1-14.3V75.5C1828.7,69.2,1826.2,66.1,1821.6,66 M1759.7,66L1759.7,66
		c-4.6,0.1-7.1,3.2-7.1,9.5v11.9c0,9.5,2.5,14.1,7.1,14.3v0c3.1-0.1,4.8-1.6,4.8-4.8V70.8C1764.4,67.6,1762.8,66.1,1759.7,66
		 M1821.6,63.6c0-7.9-4.2-11.8-11.9-11.9v0h-38.1v0c-7.7,0.1-11.9,4-11.9,11.9v0c4.6,0.1,7.1,2.4,7.1,7.1c0,4.7,2.5,7.1,7.1,7.1v0
		h33.3v0c4.6-0.1,7.1-2.4,7.1-7.1C1814.4,66,1816.9,63.7,1821.6,63.6L1821.6,63.6z"/>
</g>
<g id="XMLID_2049_">
	<path id="XMLID_2266_" class="st26" d="M1924.6,77c0.7-1.3,1.7-1.8,3.2-1.8c16.2,0,32.4,0,48.6,0c1.9,0,3.7-0.3,5.4-1
		c0.5-0.2,0.6-0.4,0.3-0.9c-2.5-4.4-1-9.5,1.4-12.9c0.3-0.4,0.6-0.3,0.9-0.1c3,1.8,5,4.3,5.8,7.7c0.1,0.6,0.3,0.7,0.9,0.6
		c2.5-0.3,5.1-0.3,7.5,0.8c2.3,1.2,2.2,1.1,1,3.1c-2,3.7-5.4,5.3-9.5,5.4c-1.1,0-1.5,0.4-1.9,1.3c-2.3,5.6-5.3,10.8-9.8,15
		c-4.8,4.5-10.6,7.1-16.9,8.5c-1.9,0.4-3.9,0.7-5.9,0.9c-0.1,0-0.3,0-0.4,0.2c-0.5,0-1.1,0-1.6,0c-0.4-0.1-0.7-0.1-1.1,0
		c-1,0-2,0-3,0c-0.4-0.1-0.8-0.1-1.2,0c-0.5,0-0.9,0-1.4,0c-2.4-0.2-4.7-0.5-7.1-1.1c-3-0.8-5.7-2-8-4.1c-2-1.9-3.5-4.1-4.6-6.6
		c-1.2-2.7-2-5.4-2.4-8.3c-0.1-0.8,0-1.7-0.2-2.5c0-0.6,0-1.3,0-1.9c0.1-0.4,0.1-0.8,0-1.2C1924.6,77.7,1924.6,77.3,1924.6,77z"/>
	<path id="XMLID_2264_" class="st27" d="M1924.6,81.2c0.5,1.3,0.4,2.6,0.7,3.9c0.7,3.3,1.8,6.5,3.5,9.4c2.8,4.7,7,7.2,12.2,8.3
		c1.8,0.4,3.6,0.7,5.4,0.9c0.2,0,0.4-0.1,0.5,0.2c-7.2,0-14.5,0-21.7,0c-0.5,0-0.6-0.1-0.6-0.6C1924.6,95.9,1924.6,88.5,1924.6,81.2
		z"/>
	<path id="XMLID_2263_" class="st26" d="M1966.4,49.6c0.3,0.2,0.4,0.6,0.4,0.9c0,1.7,0,3.5,0,5.2c0,0.7-0.3,1-0.9,1c-2,0-4,0-6,0
		c-0.6,0-1-0.3-1-0.9c0-1.7,0-3.5,0-5.2c0-0.4,0.1-0.7,0.3-1C1961.6,49.6,1964,49.6,1966.4,49.6z"/>
	<path id="XMLID_2262_" class="st28" d="M1924.6,78c0.3,0.4,0.3,0.8,0,1.2C1924.6,78.8,1924.6,78.4,1924.6,78z"/>
	<path id="XMLID_2261_" class="st29" d="M1948.3,103.8c0.4-0.3,0.8-0.3,1.2,0C1949.2,103.8,1948.7,103.8,1948.3,103.8z"/>
	<path id="XMLID_2260_" class="st30" d="M1952.6,103.8c0.4-0.3,0.7-0.3,1.1,0C1953.3,103.8,1952.9,103.8,1952.6,103.8z"/>
	<path id="XMLID_2254_" class="st31" d="M1972.2,73.8c-1,0-2,0-3.1,0c-0.6,0-0.9-0.3-0.9-0.9c0-1.8,0-3.6,0-5.4
		c0-0.6,0.3-0.8,0.9-0.8c2.1,0,4.1,0,6.2,0c0.5,0,0.8,0.2,0.8,0.8c0,1.8,0,3.7,0,5.5c0,0.6-0.3,0.8-0.8,0.8
		C1974.2,73.8,1973.2,73.8,1972.2,73.8z"/>
	<path id="XMLID_2253_" class="st26" d="M1944.2,73.8c-1,0-2,0-3,0c-0.6,0-1-0.2-1-0.9c0-1.8,0-3.6,0-5.3c0-0.6,0.3-0.9,0.9-0.9
		c2,0,4.1,0,6.1,0c0.6,0,0.9,0.3,0.9,0.9c0,1.8,0,3.6,0,5.3c0,0.6-0.2,0.9-0.9,0.9C1946.3,73.8,1945.2,73.8,1944.2,73.8z"/>
	<path id="XMLID_2252_" class="st31" d="M1953.5,73.8c-1,0-2,0-3,0c-0.6,0-0.9-0.3-0.9-0.9c0-1.8,0-3.6,0-5.4c0-0.7,0.3-0.9,1-0.9
		c2,0,4,0,6,0c0.7,0,0.9,0.3,0.9,1c0,1.8,0,3.5,0,5.3c0,0.7-0.3,1-1,0.9C1955.5,73.8,1954.5,73.8,1953.5,73.8z"/>
	<path id="XMLID_2251_" class="st26" d="M1962.8,73.8c-1,0-2,0-3,0c-0.6,0-0.9-0.2-0.9-0.9c0-1.8,0-3.6,0-5.4c0-0.6,0.3-0.9,0.8-0.9
		c2.1,0,4.1,0,6.2,0c0.6,0,0.8,0.3,0.8,0.9c0,1.8,0,3.6,0,5.4c0,0.7-0.3,0.9-0.9,0.9C1964.8,73.8,1963.8,73.8,1962.8,73.8z"/>
	<path id="XMLID_2250_" class="st31" d="M1935,73.8c-1,0-2,0-3,0c-0.6,0-0.9-0.2-0.9-0.9c0-1.8,0-3.6,0-5.4c0-0.6,0.3-0.9,0.9-0.9
		c2,0,4.1,0,6.1,0c0.6,0,0.9,0.3,0.9,0.8c0,1.8,0,3.6,0,5.4c0,0.6-0.3,0.9-0.9,0.9C1937,73.8,1936,73.8,1935,73.8z"/>
	<path id="XMLID_2249_" class="st26" d="M1944.1,65.2c-1,0-1.9,0-2.9,0c-0.7,0-1-0.2-1-0.9c0-1.8,0-3.5,0-5.3c0-0.7,0.3-0.9,0.9-0.9
		c2,0,4,0,6.1,0c0.6,0,0.9,0.2,0.9,0.9c0,1.8,0,3.6,0,5.4c0,0.6-0.3,0.9-0.9,0.9C1946.2,65.2,1945.2,65.2,1944.1,65.2z"/>
	<path id="XMLID_2248_" class="st26" d="M1962.9,65.2c-1.1,0-2.1,0-3.2,0c-0.6,0-0.8-0.2-0.8-0.8c0-1.8,0-3.7,0-5.5
		c0-0.6,0.3-0.8,0.8-0.8c2.1,0,4.2,0,6.2,0c0.6,0,0.8,0.2,0.8,0.8c0,1.8,0,3.6,0,5.4c0,0.6-0.3,0.8-0.9,0.8
		C1964.9,65.2,1963.9,65.2,1962.9,65.2z"/>
	<path id="XMLID_2247_" class="st26" d="M1953.6,65.2c-1,0-2,0-3,0c-0.7,0-1-0.2-1-0.9c0-1.8,0-3.5,0-5.3c0-0.6,0.2-1,0.9-0.9
		c2,0,4,0,6,0c0.6,0,0.9,0.2,0.9,0.9c0,1.8,0,3.6,0,5.3c0,0.7-0.3,0.9-1,0.9C1955.6,65.2,1954.6,65.2,1953.6,65.2z"/>
</g>
<g id="XMLID_2059_">
	<path id="XMLID_2063_" class="st32" d="M2113.1,68.7c0,1.2,0.1,2.2,0.4,2.9c0.3,0.7,0.6,1.5,1,2.3c0.2,0.3,0.2,0.5,0.2,0.8
		c0,0.3-0.2,0.7-0.6,1L2112,77c-0.3,0.2-0.6,0.3-0.8,0.3c-0.3,0-0.7-0.2-1-0.5c-0.5-0.5-0.8-1-1.2-1.5c-0.3-0.6-0.7-1.2-1-1.9
		c-2.5,3-5.7,4.5-9.6,4.5c-2.7,0-4.9-0.8-6.5-2.3s-2.4-3.7-2.4-6.3c0-2.8,1-5,3-6.7c2-1.7,4.6-2.5,8-2.5c1.1,0,2.3,0.1,3.5,0.3
		s2.4,0.4,3.8,0.7v-2.4c0-2.5-0.5-4.2-1.5-5.2c-1-1-2.8-1.5-5.3-1.5c-1.1,0-2.3,0.1-3.5,0.4s-2.4,0.7-3.5,1.1
		c-0.5,0.2-0.9,0.4-1.1,0.4s-0.4,0.1-0.5,0.1c-0.5,0-0.7-0.3-0.7-1v-1.6c0-0.5,0.1-0.9,0.2-1.1s0.5-0.5,0.9-0.7
		c1.1-0.6,2.5-1.1,4.1-1.5c1.6-0.4,3.3-0.6,5.1-0.6c3.9,0,6.7,0.9,8.5,2.6c1.8,1.8,2.7,4.4,2.7,8L2113.1,68.7L2113.1,68.7z
		 M2099.8,73.7c1.1,0,2.2-0.2,3.4-0.6c1.2-0.4,2.2-1.1,3.1-2.1c0.5-0.6,0.9-1.3,1.1-2.1c0.2-0.8,0.3-1.7,0.3-2.8v-1.4
		c-0.9-0.2-2-0.4-3-0.6s-2.1-0.2-3.1-0.2c-2.2,0-3.8,0.4-4.9,1.3c-1.1,0.9-1.6,2.1-1.6,3.8c0,1.5,0.4,2.7,1.2,3.5
		C2097.2,73.3,2098.3,73.7,2099.8,73.7z M2126,77.2c-0.6,0-1-0.1-1.2-0.3c-0.3-0.2-0.5-0.7-0.7-1.3l-7.7-25.2
		c-0.2-0.7-0.3-1.1-0.3-1.3c0-0.5,0.3-0.8,0.8-0.8h3.2c0.6,0,1,0.1,1.3,0.3c0.3,0.2,0.5,0.7,0.7,1.3l5.5,21.6l5.1-21.6
		c0.2-0.7,0.4-1.1,0.6-1.3s0.7-0.3,1.3-0.3h2.6c0.6,0,1,0.1,1.3,0.3c0.3,0.2,0.5,0.7,0.6,1.3l5.2,21.8l5.6-21.8
		c0.2-0.7,0.4-1.1,0.7-1.3c0.3-0.2,0.7-0.3,1.3-0.3h3c0.5,0,0.8,0.3,0.8,0.8c0,0.2,0,0.3-0.1,0.5s-0.1,0.5-0.2,0.8l-7.9,25.2
		c-0.2,0.7-0.4,1.1-0.7,1.3c-0.3,0.2-0.7,0.3-1.2,0.3h-2.8c-0.6,0-1-0.1-1.3-0.3c-0.3-0.2-0.5-0.7-0.6-1.3l-5.1-21l-5,21
		c-0.2,0.7-0.4,1.1-0.6,1.3c-0.3,0.2-0.7,0.3-1.3,0.3H2126z M2167.9,78.1c-1.7,0-3.4-0.2-5-0.6c-1.6-0.4-2.9-0.8-3.8-1.3
		c-0.5-0.3-0.9-0.6-1-0.9c-0.1-0.3-0.2-0.6-0.2-0.9v-1.7c0-0.7,0.3-1,0.8-1c0.2,0,0.4,0,0.6,0.1c0.2,0.1,0.5,0.2,0.8,0.3
		c1.1,0.5,2.3,0.9,3.6,1.1c1.3,0.3,2.6,0.4,3.9,0.4c2.1,0,3.7-0.4,4.8-1.1c1.1-0.7,1.7-1.8,1.7-3.1c0-0.9-0.3-1.7-0.9-2.3
		s-1.7-1.2-3.3-1.7l-4.7-1.5c-2.4-0.8-4.1-1.9-5.2-3.3c-1.1-1.4-1.6-3-1.6-4.7c0-1.4,0.3-2.6,0.9-3.6s1.4-2,2.3-2.7
		c1-0.8,2.1-1.3,3.4-1.7s2.7-0.6,4.1-0.6c0.7,0,1.5,0,2.2,0.1c0.8,0.1,1.4,0.2,2.1,0.4c0.7,0.2,1.3,0.3,1.9,0.5
		c0.6,0.2,1,0.4,1.4,0.6c0.5,0.3,0.8,0.5,1,0.8c0.2,0.3,0.3,0.6,0.3,1.1v1.5c0,0.7-0.3,1-0.8,1c-0.3,0-0.7-0.1-1.2-0.4
		c-1.9-0.8-3.9-1.3-6.3-1.3c-1.9,0-3.3,0.3-4.3,0.9c-1,0.6-1.5,1.6-1.5,2.9c0,0.9,0.3,1.7,1,2.3c0.7,0.6,1.9,1.2,3.6,1.8l4.6,1.5
		c2.3,0.8,4,1.8,5.1,3.1c1,1.3,1.5,2.9,1.5,4.6c0,1.4-0.3,2.7-0.8,3.8c-0.6,1.1-1.4,2.1-2.4,2.9c-1,0.8-2.2,1.4-3.6,1.8
		C2171.1,77.8,2169.6,78.1,2167.9,78.1z"/>
	<g id="XMLID_2060_">
		<path id="XMLID_2062_" class="st33" d="M2174.1,93.9c-10.7,7.9-26.3,12.1-39.7,12.1c-18.8,0-35.7-6.9-48.5-18.5
			c-1-0.9-0.1-2.2,1.1-1.4c13.8,8,30.9,12.9,48.5,12.9c11.9,0,25-2.5,37-7.6C2174.3,90.6,2175.8,92.6,2174.1,93.9z"/>
		<path id="XMLID_2061_" class="st33" d="M2178.5,88.8c-1.4-1.8-9.1-0.8-12.6-0.4c-1,0.1-1.2-0.8-0.3-1.5c6.1-4.3,16.2-3.1,17.4-1.6
			c1.2,1.5-0.3,11.5-6.1,16.4c-0.9,0.8-1.7,0.4-1.3-0.6C2177,97.8,2179.9,90.5,2178.5,88.8z"/>
	</g>
</g>
</svg>
